<?xml version="1.0" encoding="utf-8"?><!DOCTYPE svg PUBLIC "-//W3C//DTD SVG 1.1//EN" "http://www.w3.org/Graphics/SVG/1.1/DTD/svg11.dtd"><svg version="1.1" xmlns="http://www.w3.org/2000/svg" xmlns:xlink="http://www.w3.org/1999/xlink" width="24" height="28" viewBox="0 0 24 28" data-code="61533" data-tags="check-circle-o"><g fill="#444" transform="scale(0.02734375 0.02734375)"><path d="M669.143 464.571l-241.143 241.143c-14.286 14.286-37.143 14.286-51.429 0l-168-168c-14.286-14.286-14.286-37.143 0-51.429l58.286-58.286c14.286-14.286 37.143-14.286 51.429 0l84 84 157.143-157.143c14.286-14.286 37.143-14.286 51.429 0l58.286 58.286c14.286 14.286 14.286 37.143 0 51.429zM749.714 512c0-171.429-139.429-310.857-310.857-310.857s-310.857 139.429-310.857 310.857 139.429 310.857 310.857 310.857 310.857-139.429 310.857-310.857zM877.714 512c0 242.286-196.571 438.857-438.857 438.857s-438.857-196.571-438.857-438.857 196.571-438.857 438.857-438.857 438.857 196.571 438.857 438.857z" /></g></svg>